<svg xmlns="http://www.w3.org/2000/svg" width="212.009" height="197.188" viewBox="0 0 212.009 197.188">
  <g id="ads-in-all-platform" transform="translate(-999.569 -1210.455)">
    <path id="Path_30" data-name="Path 30" d="M0,37.053,80.314,0V114.072L0,77.019V37.053Z" transform="matrix(0.935, -0.355, 0.355, 0.935, 1076.405, 1240.743)" fill="#f3ce00" stroke="#000" stroke-width="2" fill-rule="evenodd"/>
    <path id="Path_31" data-name="Path 31" d="M97.6,0H20.42A20.42,20.42,0,0,0,0,20.42V40.372a20.42,20.42,0,0,0,20.42,20.42H97.6Z" transform="matrix(0.935, -0.355, 0.355, 0.935, 1000.859, 1297.874)" fill="#9601c7" stroke="#000" stroke-width="2" fill-rule="evenodd"/>
    <path id="Path_32" data-name="Path 32" d="M0,0H30.435V74.64H0Z" transform="matrix(0.935, -0.355, 0.355, 0.935, 1023.498, 1281.883)" fill="#f3ce00" stroke="#000" stroke-width="2" fill-rule="evenodd"/>
    <path id="Path_33" data-name="Path 33" d="M17.755,60.558.227,53.913S0,47.809,0,0H17.052Z" transform="matrix(0.935, -0.355, 0.355, 0.935, 1056.217, 1349.303)" fill="#9601c7" stroke="#000" stroke-width="2" fill-rule="evenodd"/>
    <path id="Path_34" data-name="Path 34" d="M0,0H16.9V6.238H0Z" transform="matrix(0.933, -0.36, 0.36, 0.933, 1192.513, 1258.171)" fill="rgba(150,1,199,0.1)" fill-rule="evenodd"/>
    <path id="Path_35" data-name="Path 35" d="M2759.762,1403.391l7.279-16.228-5.691-2.552-7.278,16.227Z" transform="translate(-1575.394 -154.861)" fill="rgba(150,1,199,0.1)" fill-rule="evenodd"/>
    <path id="Path_36" data-name="Path 36" d="M2893.159,1854.08l16.3,7.124,2.5-5.715-16.3-7.125Z" transform="translate(-1700.374 -571.579)" fill="rgba(150,1,199,0.1)" fill-rule="evenodd"/>
  </g>
</svg>
