<svg xmlns="http://www.w3.org/2000/svg" width="12.615" height="13.607" viewBox="0 0 12.615 13.607">
  <g id="Group_51" data-name="Group 51" transform="translate(-3.8 -2)">
    <path id="Path_6" data-name="Path 6" d="M12.609,14.133a1.464,1.464,0,0,0,1.474,1.474h3.629a1.464,1.464,0,0,0,1.474-1.474V11.071H12.609Zm1.446-1.758h3.629a.283.283,0,0,1,0,.567H14.054a.268.268,0,0,1-.283-.283A.284.284,0,0,1,14.054,12.375Zm0,1.134h3.629a.283.283,0,0,1,0,.567H14.054a.268.268,0,0,1-.283-.283A.284.284,0,0,1,14.054,13.509ZM20.319,3.162A1.167,1.167,0,0,0,19.157,2H13.062A1.15,1.15,0,0,0,11.9,3.162V6.479h8.419Z" transform="translate(-5.804)" fill="#9601c7"/>
    <path id="Path_7" data-name="Path 7" d="M15.423,19.9H4.764a.956.956,0,0,0-.964.964v4.9a.75.75,0,0,0,.737.737h.935a.75.75,0,0,0,.737-.737V23.557a.244.244,0,0,1,.227-.227h7.342a.244.244,0,0,1,.227.227v2.211a.75.75,0,0,0,.737.737h.935a.75.75,0,0,0,.737-.737V20.835a.994.994,0,0,0-.992-.935Zm-.4,1.5a.281.281,0,1,1-.4-.4.274.274,0,0,1,.4,0,.257.257,0,0,1,.085.2A.306.306,0,0,1,15.026,21.4Z" transform="translate(0 -12.826)" fill="#9601c7"/>
  </g>
</svg>
