<svg xmlns="http://www.w3.org/2000/svg" width="14" height="8.878" viewBox="0 0 14 8.878">
  <path id="Path_8" data-name="Path 8" d="M13.277,28.439,9,31.224V25.654Zm5.446,0L23,31.224V25.654Zm-.625.408-1.912,1.245a.344.344,0,0,1-.372,0L13.9,28.847,9.283,31.854l-.268.174a1.027,1.027,0,0,0,1.009.85H21.976a1.025,1.025,0,0,0,1.009-.85l-.27-.174L18.1,28.847ZM16,29.4l6.715-4.372.27-.174A1.025,1.025,0,0,0,21.976,24H10.024a1.027,1.027,0,0,0-1.009.85l.268.174Z" transform="translate(-9 -24)" fill="#9601c7"/>
</svg>
