<svg xmlns="http://www.w3.org/2000/svg" width="11.35" height="11.327" viewBox="0 0 11.35 11.327">
  <path id="Path_5" data-name="Path 5" d="M10.722,13.327A8.733,8.733,0,0,1,2,4.605,2.605,2.605,0,0,1,4.605,2a2.231,2.231,0,0,1,.436.04,2.146,2.146,0,0,1,.408.1.566.566,0,0,1,.368.425l.776,3.4a.566.566,0,0,1-.147.521c-.074.079-.079.085-.776.447A5.612,5.612,0,0,0,8.428,9.7c.368-.7.374-.708.453-.782A.566.566,0,0,1,9.4,8.773l3.4.776a.566.566,0,0,1,.408.368,2.458,2.458,0,0,1,.108.413,2.7,2.7,0,0,1,.034.43A2.605,2.605,0,0,1,10.722,13.327Z" transform="translate(-2 -2)" fill="#9601c7"/>
</svg>